# Blender 4.1.1
# www.blender.org
mtllib Sketchfab_2023_03_29_13_53_59.mtl
o Deco_01.003
v 2.206779 3.606931 0.109234
v 2.169752 3.606931 0.213347
v 2.072816 3.606931 0.277691
v 1.952997 3.606931 0.277691
v 1.856060 3.606931 0.213347
v 1.819034 3.606931 0.109234
v 1.856060 3.606931 0.005121
v 1.952997 3.606931 -0.059224
v 2.072816 3.606931 -0.059224
v 2.169752 3.606931 0.005121
v 2.184010 3.455420 0.109234
v 2.180157 3.444110 0.221177
v 2.076791 3.444110 0.290360
v 1.949022 3.444110 0.290360
v 1.845656 3.444110 0.221177
v 1.806173 3.444110 0.109234
v 1.845656 3.444110 -0.002708
v 1.949022 3.444110 -0.071892
v 2.076791 3.444110 -0.071892
v 2.180157 3.444110 -0.002708
v 2.184010 3.488723 0.109234
v 2.169752 3.492306 0.213347
v 2.072816 3.492306 0.277691
v 1.952997 3.492306 0.277691
v 1.856060 3.492306 0.213347
v 1.819034 3.492306 0.109234
v 1.856060 3.492306 0.005121
v 1.952997 3.492306 -0.059224
v 2.072816 3.492306 -0.059224
v 2.169752 3.492306 0.005121
v 2.321512 0.217928 0.314563
v 2.130784 0.217928 0.441463
v 1.895031 0.217928 0.441463
v 1.704303 0.217928 0.314563
v 1.631451 0.217928 0.109234
v 1.704303 0.217928 -0.096096
v 1.895031 0.217928 -0.222996
v 2.130784 0.217928 -0.222996
v 2.321512 0.217928 -0.096096
v 2.151332 3.455420 0.013480
v 2.219640 3.444110 0.109234
v 2.065780 3.455420 -0.045700
v 1.960032 3.455420 -0.045700
v 1.874480 3.455420 0.013480
v 1.841803 3.455420 0.109234
v 1.874480 3.455420 0.204987
v 1.960032 3.455420 0.264167
v 2.065780 3.455420 0.264167
v 2.151332 3.455420 0.204987
v 2.151332 3.488723 0.013480
v 2.206779 3.492306 0.109234
v 2.065780 3.488723 -0.045700
v 1.960032 3.488723 -0.045700
v 1.874480 3.488723 0.013480
v 1.841803 3.488723 0.109234
v 1.874480 3.488723 0.204987
v 1.960032 3.488723 0.264167
v 2.065780 3.488723 0.264167
v 2.151332 3.488723 0.204987
v 2.394364 0.217928 0.109234
v 2.430235 0.246118 0.109234
v 2.430235 0.160775 0.109234
v 2.350533 0.246118 0.337516
v 2.350533 0.160775 0.337516
v 2.141869 0.246118 0.478603
v 2.141869 0.160775 0.478603
v 1.883946 0.246118 0.478603
v 1.883946 0.160775 0.478603
v 1.675282 0.246118 0.337516
v 1.675282 0.160775 0.337516
v 1.595580 0.246118 0.109234
v 1.595580 0.160774 0.109234
v 1.675282 0.246118 -0.119049
v 1.675282 0.160775 -0.119049
v 1.883946 0.246118 -0.260136
v 1.883946 0.160775 -0.260136
v 2.141869 0.246118 -0.260136
v 2.141869 0.160775 -0.260136
v 2.350533 0.246118 -0.119049
v 2.350533 0.160775 -0.119049
v 2.241372 3.623997 0.109234
v 2.241372 3.561857 0.109234
v 2.197739 3.623997 0.273588
v 2.197739 3.561857 0.273588
v 2.083506 3.623997 0.375164
v 2.083506 3.561857 0.375164
v 1.942307 3.623997 0.375164
v 1.942307 3.561857 0.375164
v 1.828074 3.623997 0.273588
v 1.828074 3.561857 0.273588
v 1.784441 3.623997 0.109234
v 1.784441 3.561857 0.109234
v 1.828074 3.623997 -0.055120
v 1.828074 3.561857 -0.055120
v 1.942307 3.623997 -0.156696
v 1.942307 3.561857 -0.156696
v 2.083506 3.623997 -0.156696
v 2.083506 3.561857 -0.156696
v 2.197739 3.623997 -0.055120
v 2.197739 3.561857 -0.055120
v 2.307002 1.831019 0.109234
v 2.250835 1.831019 0.267869
v 2.103787 1.831019 0.365911
v 1.922027 1.831019 0.365911
v 1.774979 1.831019 0.267869
v 1.718812 1.831019 0.109234
v 1.774979 1.831019 -0.049402
v 1.922027 1.831019 -0.147444
v 2.103788 1.831019 -0.147444
v 2.250835 1.831019 -0.049402
v 2.263321 2.637565 0.109234
v 2.215496 2.637565 0.244523
v 2.090289 2.637565 0.328136
v 1.935524 2.637565 0.328136
v 1.810318 2.637565 0.244523
v 1.762493 2.637565 0.109234
v 1.810318 2.637565 -0.026055
v 1.935524 2.637565 -0.109668
v 2.090289 2.637565 -0.109668
v 2.215496 2.637565 -0.026055
v 2.250990 1.827489 0.267972
v 2.103846 1.827489 0.366077
v 1.921968 1.827489 0.366077
v 1.774825 1.827489 0.267972
v 1.718621 1.827489 0.109234
v 1.774825 1.827489 -0.049504
v 1.921968 1.827489 -0.147609
v 2.103847 1.827489 -0.147609
v 2.250990 1.827489 -0.049504
v 2.307193 1.827490 0.109234
v 2.286251 1.022709 0.291268
v 2.117315 1.022709 0.403770
v 1.908499 1.022709 0.403770
v 1.739564 1.022708 0.291268
v 1.675036 1.022708 0.109234
v 1.739564 1.022708 -0.072800
v 1.908499 1.022709 -0.185303
v 2.117315 1.022709 -0.185303
v 2.286251 1.022709 -0.072800
v 2.350779 1.022709 0.109234
v 2.012908 0.160775 0.109234
v 2.012906 3.561858 0.109234
v 2.012906 3.623998 0.109234
v 2.012908 0.246118 0.109234
vn 0.9422 -0.0000 0.3351
vn 0.5530 -0.0000 0.8332
vn -0.0000 -0.0000 1.0000
vn -0.5530 -0.0000 0.8332
vn -0.9422 -0.0000 0.3351
vn -0.9422 -0.0000 -0.3351
vn -0.5530 -0.0000 -0.8332
vn -0.0000 -0.0000 -1.0000
vn 0.5530 -0.0000 -0.8332
vn 0.9422 -0.0000 -0.3351
vn 0.9416 0.0509 -0.3328
vn 0.9417 0.0509 -0.3326
vn 0.5547 0.0483 -0.8306
vn 0.5551 0.0483 -0.8304
vn -0.0000 0.0468 -0.9989
vn -0.5547 0.0483 -0.8306
vn -0.5551 0.0483 -0.8304
vn -0.9416 0.0509 -0.3328
vn -0.9417 0.0509 -0.3326
vn -0.9416 0.0509 0.3328
vn -0.9417 0.0509 0.3326
vn -0.5547 0.0483 0.8306
vn -0.5551 0.0483 0.8304
vn -0.0000 0.0468 0.9989
vn 0.5547 0.0483 0.8306
vn 0.5551 0.0483 0.8304
vn 0.9416 0.0509 0.3328
vn 0.9417 0.0509 0.3326
vn 0.9464 -0.0000 -0.3230
vn 0.5689 -0.0000 -0.8224
vn -0.5689 -0.0000 -0.8224
vn -0.9464 -0.0000 -0.3230
vn -0.9464 -0.0000 0.3230
vn -0.5689 -0.0000 0.8224
vn 0.5689 -0.0000 0.8224
vn 0.9464 -0.0000 0.3230
vn 0.2538 0.9436 -0.2126
vn 0.3072 0.9517 -0.0000
vn 0.2627 0.9450 -0.1949
vn 0.0987 0.9299 -0.3542
vn 0.1112 0.9307 -0.3485
vn -0.0987 0.9299 -0.3542
vn -0.1112 0.9307 -0.3485
vn -0.2538 0.9436 -0.2126
vn -0.2627 0.9450 -0.1949
vn -0.3072 0.9517 -0.0000
vn -0.2538 0.9436 0.2126
vn -0.2627 0.9450 0.1949
vn -0.0987 0.9299 0.3542
vn -0.1112 0.9307 0.3485
vn 0.0987 0.9299 0.3542
vn 0.1112 0.9307 0.3485
vn 0.2538 0.9436 0.2126
vn 0.2627 0.9450 0.1949
vn 0.1604 -0.9871 -0.0000
vn 0.1387 -0.9825 -0.1247
vn 0.1445 -0.9838 -0.1062
vn 0.0551 -0.9736 -0.2217
vn 0.0693 -0.9747 -0.2126
vn -0.0551 -0.9736 -0.2217
vn -0.0693 -0.9747 -0.2126
vn -0.1387 -0.9825 -0.1247
vn -0.1445 -0.9838 -0.1062
vn -0.1604 -0.9871 -0.0000
vn -0.1387 -0.9825 0.1247
vn -0.1445 -0.9838 0.1062
vn -0.0551 -0.9736 0.2217
vn -0.0693 -0.9747 0.2126
vn 0.0551 -0.9736 0.2217
vn 0.0693 -0.9747 0.2126
vn 0.1387 -0.9825 0.1247
vn 0.1445 -0.9838 0.1062
vn 0.9441 -0.0000 0.3296
vn 0.5601 -0.0000 0.8284
vn -0.5601 -0.0000 0.8284
vn -0.9441 -0.0000 0.3296
vn -0.9441 -0.0000 -0.3296
vn -0.5601 -0.0000 -0.8284
vn -0.0000 -1.0000 -0.0000
vn 0.5601 -0.0000 -0.8284
vn 0.9441 -0.0000 -0.3296
vn -0.0000 1.0000 -0.0000
vn 1.0000 -0.0000 -0.0000
vn 0.9665 -0.0000 0.2566
vn 0.6645 -0.0000 0.7473
vn -0.6645 -0.0000 0.7473
vn -0.9665 -0.0000 0.2566
vn -1.0000 -0.0000 -0.0000
vn -0.9665 -0.0000 -0.2566
vn -0.6645 -0.0000 -0.7473
vn 0.6645 -0.0000 -0.7473
vn 0.9665 -0.0000 -0.2566
vn 0.9414 0.0510 0.3334
vn 0.9415 0.0510 0.3332
vn 0.5540 0.0482 0.8311
vn 0.5542 0.0482 0.8310
vn -0.5540 0.0482 0.8311
vn -0.5542 0.0482 0.8310
vn -0.9414 0.0510 0.3334
vn -0.9415 0.0510 0.3332
vn -0.9414 0.0509 -0.3334
vn -0.9415 0.0509 -0.3332
vn -0.5540 0.0483 -0.8311
vn -0.5542 0.0483 -0.8310
vn -0.0000 0.0467 -0.9989
vn 0.5540 0.0484 -0.8311
vn 0.5542 0.0484 -0.8310
vn 0.9414 0.0509 -0.3334
vn 0.9415 0.0509 -0.3332
vn 0.9413 0.0509 -0.3337
vn 0.5537 0.0483 -0.8313
vn -0.5537 0.0483 -0.8313
vn -0.9413 0.0509 -0.3337
vn -0.9413 0.0509 0.3337
vn -0.5537 0.0483 0.8313
vn 0.5537 0.0483 0.8313
vn 0.9413 0.0509 0.3337
vn 0.9413 0.0509 0.3338
vn 0.5535 0.0483 0.8315
vn -0.5535 0.0483 0.8315
vn -0.9413 0.0509 0.3338
vn -0.9413 0.0509 -0.3338
vn -0.5535 0.0483 -0.8315
vn 0.5535 0.0483 -0.8315
vn 0.9413 0.0509 -0.3338
vt 0.086490 0.321535
vt 0.177368 0.321535
vt 0.177368 0.409837
vt 0.086490 0.409837
vt 0.177368 0.502336
vt 0.086490 0.502336
vt 0.177368 0.597332
vt 0.086490 0.597332
vt 0.177368 0.689830
vt 0.086490 0.689830
vt 0.177368 0.778133
vt 0.086490 0.778133
vt 0.177368 0.866436
vt 0.086490 0.866436
vt 0.177368 0.958934
vt 0.086490 0.958934
vt 0.086490 0.045737
vt 0.177368 0.045737
vt 0.177368 0.140734
vt 0.086490 0.140734
vt 0.177368 0.233232
vt 0.086490 0.233232
vt 0.874691 0.607955
vt 0.874691 0.793625
vt 0.826548 0.793625
vt 0.826549 0.607954
vt 0.925122 0.607955
vt 0.925122 0.793625
vt 0.976913 0.607955
vt 0.976913 0.793625
vt 0.529468 0.607954
vt 0.529468 0.793625
vt 0.479038 0.793625
vt 0.479038 0.607954
vt 0.577611 0.607955
vt 0.577611 0.793625
vt 0.625754 0.607955
vt 0.625754 0.793625
vt 0.676184 0.607955
vt 0.676184 0.793625
vt 0.727976 0.607955
vt 0.727976 0.793625
vt 0.778406 0.607955
vt 0.778406 0.793625
vt 0.044951 0.233232
vt 0.071354 0.233232
vt 0.071354 0.321535
vt 0.044951 0.321535
vt 0.044951 0.140734
vt 0.071354 0.140734
vt 0.044951 0.045737
vt 0.071354 0.045737
vt 0.044951 0.866436
vt 0.071354 0.866436
vt 0.071354 0.958934
vt 0.044951 0.958934
vt 0.044951 0.778133
vt 0.071354 0.778133
vt 0.044951 0.689830
vt 0.071354 0.689830
vt 0.044951 0.597332
vt 0.071354 0.597332
vt 0.044951 0.502336
vt 0.071354 0.502336
vt 0.044951 0.409837
vt 0.071354 0.409837
vt 0.018244 0.321535
vt 0.018244 0.233232
vt 0.018244 0.140734
vt 0.018244 0.045737
vt 0.018244 0.958934
vt 0.018244 0.866436
vt 0.018244 0.778133
vt 0.018244 0.689830
vt 0.018244 0.597332
vt 0.018244 0.502336
vt 0.018244 0.409837
vt 0.943013 0.970685
vt 0.892108 0.980907
vt 0.893587 0.963052
vt 0.933023 0.955985
vt 0.842835 0.958279
vt 0.854123 0.944308
vt 0.812830 0.911906
vt 0.829728 0.906260
vt 0.812830 0.858284
vt 0.829797 0.863336
vt 0.844351 0.817433
vt 0.854340 0.832133
vt 0.895255 0.807212
vt 0.893776 0.825066
vt 0.944528 0.829839
vt 0.933240 0.843811
vt 0.974533 0.876212
vt 0.957636 0.881858
vt 0.300354 0.979222
vt 0.239823 0.954924
vt 0.300354 0.873684
vt 0.974533 0.929835
vt 0.957566 0.924782
vt 0.220937 0.598438
vt 0.262655 0.542448
vt 0.330155 0.642280
vt 0.562034 0.940898
vt 0.587014 0.902979
vt 0.606696 0.907969
vt 0.575692 0.955518
vt 0.588080 0.863575
vt 0.606696 0.855631
vt 0.566388 0.836991
vt 0.574844 0.818981
vt 0.527979 0.832874
vt 0.523890 0.813452
vt 0.487109 0.853332
vt 0.473441 0.838577
vt 0.460857 0.890920
vt 0.441127 0.885774
vt 0.460119 0.930094
vt 0.441541 0.938242
vt 0.482164 0.956483
vt 0.473879 0.974593
vt 0.383066 0.319267
vt 0.424008 0.381151
vt 0.316820 0.393767
vt 0.520919 0.960242
vt 0.524843 0.979700
vt 0.252660 0.243001
vt 0.212920 0.198309
vt 0.316962 0.145809
vt 0.826549 0.421471
vt 0.826549 0.422284
vt 0.778406 0.422284
vt 0.778406 0.421471
vt 0.727976 0.422284
vt 0.727976 0.421471
vt 0.676184 0.422284
vt 0.676184 0.421471
vt 0.625754 0.422284
vt 0.625754 0.421471
vt 0.577611 0.422284
vt 0.577611 0.421471
vt 0.529468 0.422284
vt 0.529468 0.421471
vt 0.479038 0.422284
vt 0.479038 0.421471
vt 0.976913 0.421471
vt 0.976913 0.422284
vt 0.925122 0.422284
vt 0.925122 0.421471
vt 0.874691 0.422284
vt 0.874691 0.421471
vt 0.874691 0.236212
vt 0.826549 0.236212
vt 0.925122 0.236212
vt 0.976913 0.236212
vt 0.529468 0.236212
vt 0.479038 0.236212
vt 0.577611 0.236212
vt 0.625754 0.236212
vt 0.676184 0.236212
vt 0.727976 0.236212
vt 0.778406 0.236212
vt 0.826549 0.050953
vt 0.778406 0.050953
vt 0.727976 0.050953
vt 0.676184 0.050953
vt 0.625754 0.050953
vt 0.577611 0.050953
vt 0.529468 0.050953
vt 0.479038 0.050953
vt 0.976913 0.050953
vt 0.925122 0.050953
vt 0.874691 0.050953
vt 0.398296 0.912999
vt 0.360886 0.963208
vt 0.398296 0.847773
vt 0.360886 0.792444
vt 0.300354 0.768145
vt 0.239823 0.784159
vt 0.202412 0.834368
vt 0.202412 0.899594
vt 0.383065 0.493898
vt 0.316820 0.501695
vt 0.212920 0.133563
vt 0.252660 0.073495
vt 0.316962 0.041048
vt 0.381264 0.048617
vt 0.421004 0.158054
vt 0.381264 0.218123
vt 0.421004 0.093309
vt 0.316962 0.250569
vt 0.250574 0.468268
vt 0.209632 0.406384
vt 0.209632 0.339680
vt 0.250574 0.293636
vt 0.316820 0.285839
vt 0.330155 0.759970
vt 0.262655 0.732874
vt 0.424008 0.447855
vt 0.397656 0.742112
vt 0.439374 0.613386
vt 0.439374 0.686122
vt 0.397656 0.551687
vt 0.330155 0.524591
vt 0.220937 0.671174
s 1
usemtl Trim_Collumne_02
f 51/1/1 1/2/1 2/3/1 22/4/1
f 22/4/2 2/3/2 3/5/2 23/6/2
f 23/6/3 3/5/3 4/7/3 24/8/3
f 24/8/4 4/7/4 5/9/4 25/10/4
f 25/10/5 5/9/5 6/11/5 26/12/5
f 26/12/6 6/11/6 7/13/6 27/14/6
f 27/14/7 7/13/7 8/15/7 28/16/7
f 28/17/8 8/18/8 9/19/8 29/20/8
f 29/20/9 9/19/9 10/21/9 30/22/9
f 30/22/10 10/21/10 1/2/10 51/1/10
f 120/23/11 20/24/12 41/25/12 111/26/11
f 119/27/13 19/28/14 20/24/14 120/23/13
f 118/29/15 18/30/15 19/28/15 119/27/15
f 117/31/16 17/32/17 18/33/17 118/34/16
f 116/35/18 16/36/19 17/32/19 117/31/18
f 115/37/20 15/38/21 16/36/21 116/35/20
f 114/39/22 14/40/23 15/38/23 115/37/22
f 113/41/24 13/42/24 14/40/24 114/39/24
f 112/43/25 12/44/26 13/42/26 113/41/25
f 111/26/27 41/25/28 12/44/28 112/43/27
f 40/45/29 50/46/29 21/47/29 11/48/29
f 42/49/30 52/50/30 50/46/30 40/45/30
f 43/51/8 53/52/8 52/50/8 42/49/8
f 44/53/31 54/54/31 53/55/31 43/56/31
f 45/57/32 55/58/32 54/54/32 44/53/32
f 46/59/33 56/60/33 55/58/33 45/57/33
f 47/61/34 57/62/34 56/60/34 46/59/34
f 48/63/3 58/64/3 57/62/3 47/61/3
f 49/65/35 59/66/35 58/64/35 48/63/35
f 11/48/36 21/47/36 59/66/36 49/65/36
f 40/45/37 11/48/38 41/67/38 20/68/39
f 42/49/40 40/45/37 20/68/39 19/69/41
f 43/51/42 42/49/40 19/69/41 18/70/43
f 44/53/44 43/56/42 18/71/43 17/72/45
f 45/57/46 44/53/44 17/72/45 16/73/46
f 46/59/47 45/57/46 16/73/46 15/74/48
f 47/61/49 46/59/47 15/74/48 14/75/50
f 48/63/51 47/61/49 14/75/50 13/76/52
f 49/65/53 48/63/51 13/76/52 12/77/54
f 11/48/38 49/65/53 12/77/54 41/67/38
f 21/47/55 50/46/56 30/22/57 51/1/55
f 50/46/56 52/50/58 29/20/59 30/22/57
f 52/50/58 53/52/60 28/17/61 29/20/59
f 53/55/60 54/54/62 27/14/63 28/16/61
f 54/54/62 55/58/64 26/12/64 27/14/63
f 55/58/64 56/60/65 25/10/66 26/12/64
f 56/60/65 57/62/67 24/8/68 25/10/66
f 57/62/67 58/64/69 23/6/70 24/8/68
f 58/64/69 59/66/71 22/4/72 23/6/70
f 59/66/71 21/47/55 51/1/55 22/4/72
f 61/78/73 63/79/73 64/80/73 62/81/73
f 63/79/74 65/82/74 66/83/74 64/80/74
f 65/82/3 67/84/3 68/85/3 66/83/3
f 67/84/75 69/86/75 70/87/75 68/85/75
f 69/86/76 71/88/76 72/89/76 70/87/76
f 71/88/77 73/90/77 74/91/77 72/89/77
f 73/90/78 75/92/78 76/93/78 74/91/78
f 75/92/8 77/94/8 78/95/8 76/93/8
f 64/96/79 66/97/79 141/98/79
f 77/94/80 79/99/80 80/100/80 78/95/80
f 79/99/81 61/78/81 62/81/81 80/100/81
f 73/101/82 71/102/82 144/103/82
f 81/104/83 83/105/84 84/106/84 82/107/83
f 83/105/85 85/108/85 86/109/85 84/106/85
f 85/108/3 87/110/3 88/111/3 86/109/3
f 87/110/86 89/112/86 90/113/86 88/111/86
f 89/112/87 91/114/88 92/115/88 90/113/87
f 91/114/88 93/116/89 94/117/89 92/115/88
f 93/116/90 95/118/90 96/119/90 94/117/90
f 95/118/8 97/120/8 98/121/8 96/119/8
f 92/122/79 94/123/79 142/124/79
f 97/120/91 99/125/91 100/126/91 98/121/91
f 99/125/92 81/104/83 82/107/83 100/126/92
f 97/127/82 95/128/82 143/129/82
f 130/130/93 101/131/94 102/132/94 121/133/93
f 121/133/95 102/132/96 103/134/96 122/135/95
f 122/135/24 103/134/24 104/136/24 123/137/24
f 123/137/97 104/136/98 105/138/98 124/139/97
f 124/139/99 105/138/100 106/140/100 125/141/99
f 125/141/101 106/140/102 107/142/102 126/143/101
f 126/143/103 107/142/104 108/144/104 127/145/103
f 127/146/105 108/147/105 109/148/105 128/149/105
f 128/149/106 109/148/107 110/150/107 129/151/106
f 129/151/108 110/150/109 101/131/109 130/130/108
f 101/131/94 111/26/27 112/43/27 102/132/94
f 102/132/96 112/43/25 113/41/25 103/134/96
f 103/134/24 113/41/24 114/39/24 104/136/24
f 104/136/98 114/39/22 115/37/22 105/138/98
f 105/138/100 115/37/20 116/35/20 106/140/100
f 106/140/102 116/35/18 117/31/18 107/142/102
f 107/142/104 117/31/16 118/34/16 108/144/104
f 108/147/105 118/29/15 119/27/15 109/148/105
f 109/148/107 119/27/13 120/23/13 110/150/107
f 110/150/109 120/23/11 111/26/11 101/131/109
f 139/152/110 129/151/108 130/130/108 140/153/110
f 138/154/111 128/149/106 129/151/106 139/152/111
f 137/155/15 127/146/105 128/149/105 138/154/15
f 136/156/112 126/143/103 127/145/103 137/157/112
f 135/158/113 125/141/101 126/143/101 136/156/113
f 134/159/114 124/139/99 125/141/99 135/158/114
f 133/160/115 123/137/97 124/139/97 134/159/115
f 132/161/24 122/135/24 123/137/24 133/160/24
f 131/162/116 121/133/95 122/135/95 132/161/116
f 140/153/117 130/130/93 121/133/93 131/162/117
f 60/163/118 140/153/117 131/162/117 31/164/118
f 31/164/119 131/162/116 132/161/116 32/165/119
f 32/165/24 132/161/24 133/160/24 33/166/24
f 33/166/120 133/160/115 134/159/115 34/167/120
f 34/167/121 134/159/114 135/158/114 35/168/121
f 35/168/122 135/158/113 136/156/113 36/169/122
f 36/169/123 136/156/112 137/157/112 37/170/123
f 37/171/15 137/155/15 138/154/15 38/172/15
f 38/172/124 138/154/111 139/152/111 39/173/124
f 39/173/125 139/152/110 140/153/110 60/163/125
f 80/174/79 62/175/79 141/98/79
f 78/176/79 80/174/79 141/98/79
f 76/177/79 78/176/79 141/98/79
f 74/178/79 76/177/79 141/98/79
f 72/179/79 74/178/79 141/98/79
f 70/180/79 72/179/79 141/98/79
f 68/181/79 70/180/79 141/98/79
f 62/175/79 64/96/79 141/98/79
f 66/97/79 68/181/79 141/98/79
f 98/182/79 100/183/79 142/124/79
f 95/128/82 93/184/82 143/129/82
f 93/184/82 91/185/82 143/129/82
f 91/185/82 89/186/82 143/129/82
f 89/186/82 87/187/82 143/129/82
f 83/188/82 81/189/82 143/129/82
f 87/187/82 85/190/82 143/129/82
f 85/190/82 83/188/82 143/129/82
f 81/189/82 99/191/82 143/129/82
f 99/191/82 97/127/82 143/129/82
f 100/183/79 82/192/79 142/124/79
f 84/193/79 86/194/79 142/124/79
f 86/194/79 88/195/79 142/124/79
f 82/192/79 84/193/79 142/124/79
f 88/195/79 90/196/79 142/124/79
f 90/196/79 92/122/79 142/124/79
f 79/197/82 77/198/82 144/103/82
f 96/199/79 98/182/79 142/124/79
f 94/123/79 96/199/79 142/124/79
f 61/200/82 79/197/82 144/103/82
f 65/201/82 63/202/82 144/103/82
f 67/203/82 65/201/82 144/103/82
f 63/202/82 61/200/82 144/103/82
f 69/204/82 67/203/82 144/103/82
f 71/102/82 69/204/82 144/103/82
f 77/198/82 75/205/82 144/103/82
f 75/205/82 73/101/82 144/103/82
