# Blender 4.1.1
# www.blender.org
mtllib column-3.mtl
o Deco_01.005
v 2.305194 0.168628 1.848442
v 2.250208 0.168628 2.017672
v 2.106252 0.168628 2.122261
v 1.928314 0.168628 2.122261
v 1.784359 0.168628 2.017672
v 1.729373 0.168628 1.848442
v 1.784359 0.168628 1.679212
v 1.928314 0.168628 1.574623
v 2.106253 0.168628 1.574623
v 2.250208 0.168628 1.679212
v 2.017282 1.581157 1.848442
v 2.218489 0.927175 1.996328
v 2.094136 0.927175 2.087726
v 1.940429 0.927175 2.087726
v 1.816077 0.927175 1.996328
v 1.768579 0.927175 1.848442
v 1.816077 0.927175 1.700556
v 1.940429 0.927175 1.609157
v 2.094136 0.927175 1.609157
v 2.218489 0.927175 1.700556
v 2.305193 0.934602 1.848442
v 2.305193 1.552098 1.848442
v 2.229982 1.567424 1.997945
v 2.098526 1.567424 2.090343
v 1.936039 1.567424 2.090343
v 1.804583 1.567424 1.997945
v 1.754372 1.567424 1.848442
v 1.804583 1.567424 1.698939
v 1.936039 1.567424 1.606540
v 2.098526 1.567424 1.606540
v 2.229982 1.567424 1.698939
v 2.218489 0.893311 1.996328
v 2.094136 0.893311 2.087726
v 1.940429 0.893311 2.087726
v 1.816077 0.893311 1.996328
v 1.768579 0.893311 1.848442
v 1.816077 0.893311 1.700556
v 1.940429 0.893311 1.609157
v 2.094136 0.893311 1.609157
v 2.218489 0.893311 1.700556
v 2.305193 0.885884 1.848442
v 2.250207 1.552098 1.679212
v 2.280193 1.567424 1.848442
v 2.106252 1.552098 1.574623
v 1.928313 1.552098 1.574623
v 1.784358 1.552098 1.679212
v 1.729372 1.552098 1.848442
v 1.784358 1.552098 2.017672
v 1.928313 1.552098 2.122261
v 2.106252 1.552098 2.122261
v 2.250207 1.552098 2.017672
v 2.250207 0.934602 1.679212
v 2.265986 0.927175 1.848442
v 2.106252 0.934602 1.574623
v 1.928313 0.934602 1.574623
v 1.784358 0.934602 1.679212
v 1.729373 0.934602 1.848442
v 1.784358 0.934602 2.017672
v 1.928313 0.934602 2.122261
v 2.106252 0.934602 2.122261
v 2.250207 0.934602 2.017672
v 2.265986 0.893311 1.848442
v 2.250207 0.885884 2.017672
v 2.106252 0.885884 2.122261
v 1.928313 0.885884 2.122261
v 1.784358 0.885884 2.017672
v 1.729373 0.885884 1.848442
v 1.784358 0.885884 1.679212
v 1.928313 0.885884 1.574623
v 2.106252 0.885884 1.574623
v 2.250207 0.885884 1.679212
v 2.426651 0.243591 1.848442
v 2.426651 0.159876 1.848442
v 2.348469 0.243591 2.072371
v 2.348469 0.159876 2.072371
v 2.143785 0.243591 2.210766
v 2.143785 0.159876 2.210766
v 1.890781 0.243591 2.210766
v 1.890781 0.159876 2.210766
v 1.686097 0.243591 2.072371
v 1.686097 0.159875 2.072371
v 1.607915 0.243591 1.848442
v 1.607915 0.159875 1.848442
v 1.686097 0.243591 1.624513
v 1.686097 0.159875 1.624513
v 1.890781 0.243591 1.486117
v 1.890781 0.159876 1.486117
v 2.143785 0.243591 1.486117
v 2.143785 0.159876 1.486117
v 2.348469 0.243591 1.624513
v 2.348469 0.159876 1.624513
v 2.353951 0.288711 1.848442
v 2.353951 0.222809 1.848442
v 2.289653 0.288711 2.038846
v 2.289653 0.222809 2.038846
v 2.121319 0.288711 2.156522
v 2.121319 0.222809 2.156522
v 1.913247 0.288711 2.156522
v 1.913247 0.222809 2.156522
v 1.744913 0.288711 2.038846
v 1.744913 0.222809 2.038846
v 1.680615 0.288711 1.848442
v 1.680615 0.222809 1.848442
v 1.744913 0.288711 1.658038
v 1.744913 0.222809 1.658038
v 1.913247 0.288711 1.540361
v 1.913247 0.222809 1.540361
v 2.121320 0.288711 1.540361
v 2.121320 0.222809 1.540361
v 2.289653 0.288711 1.658038
v 2.289653 0.222809 1.658038
v 2.017283 0.159876 1.848442
v 2.017283 0.243591 1.848442
v 2.017283 0.288711 1.848442
vn -0.0000 1.0000 -0.0000
vn 0.3330 0.9429 -0.0000
vn 0.2600 0.9493 0.1765
vn 0.0920 0.9591 0.2676
vn -0.0920 0.9591 0.2676
vn -0.2600 0.9493 0.1765
vn -0.3330 0.9429 -0.0000
vn -0.2600 0.9493 -0.1765
vn -0.0920 0.9591 -0.2676
vn 0.0920 0.9591 -0.2676
vn 0.2600 0.9493 -0.1765
vn 0.9521 -0.0000 -0.3058
vn 0.5922 -0.0000 -0.8058
vn -0.0000 -0.0000 -1.0000
vn -0.5922 -0.0000 -0.8058
vn -0.9521 -0.0000 -0.3058
vn -0.9521 -0.0000 0.3058
vn -0.5922 -0.0000 0.8058
vn -0.0000 -0.0000 1.0000
vn 0.5922 -0.0000 0.8058
vn 0.9521 -0.0000 0.3058
vn 0.9511 -0.0000 -0.3090
vn 0.5878 -0.0000 -0.8090
vn -0.5878 -0.0000 -0.8090
vn -0.9511 -0.0000 -0.3090
vn -0.9511 -0.0000 0.3090
vn -0.5878 -0.0000 0.8090
vn 0.5878 -0.0000 0.8090
vn 0.9511 -0.0000 0.3090
vn 0.5097 0.8603 -0.0000
vn 0.3803 0.8795 -0.2862
vn 0.1294 0.9023 -0.4112
vn -0.1294 0.9023 -0.4112
vn -0.3803 0.8795 -0.2862
vn -0.5097 0.8603 -0.0000
vn -0.3803 0.8795 0.2862
vn -0.1294 0.9023 0.4112
vn 0.1294 0.9023 0.4112
vn 0.3803 0.8795 0.2862
vn 0.1875 -0.9823 -0.0000
vn 0.1537 -0.9815 -0.1140
vn 0.1552 -0.9815 -0.1117
vn 0.0599 -0.9803 -0.1884
vn 0.0616 -0.9803 -0.1878
vn -0.0599 -0.9803 -0.1884
vn -0.0616 -0.9803 -0.1878
vn -0.1537 -0.9815 -0.1140
vn -0.1552 -0.9815 -0.1117
vn -0.1875 -0.9823 -0.0000
vn -0.1537 -0.9815 0.1140
vn -0.1552 -0.9815 0.1117
vn -0.0599 -0.9803 0.1884
vn -0.0616 -0.9803 0.1878
vn 0.0599 -0.9803 0.1884
vn 0.0616 -0.9803 0.1878
vn 0.1537 -0.9815 0.1140
vn 0.1552 -0.9815 0.1117
vn 0.1875 0.9823 -0.0000
vn 0.1537 0.9815 0.1140
vn 0.1552 0.9815 0.1117
vn 0.0599 0.9803 0.1884
vn 0.0616 0.9803 0.1878
vn -0.0599 0.9803 0.1884
vn -0.0616 0.9803 0.1878
vn -0.1537 0.9815 0.1140
vn -0.1552 0.9815 0.1117
vn -0.1875 0.9823 -0.0000
vn -0.1537 0.9815 -0.1140
vn -0.1552 0.9815 -0.1117
vn -0.0599 0.9803 -0.1885
vn -0.0616 0.9803 -0.1878
vn 0.0599 0.9803 -0.1885
vn 0.0616 0.9803 -0.1878
vn 0.1537 0.9815 -0.1140
vn 0.1552 0.9815 -0.1117
vn 0.9441 -0.0000 0.3296
vn 0.5601 -0.0000 0.8284
vn -0.5601 -0.0000 0.8284
vn -0.9441 -0.0000 0.3296
vn -0.9441 -0.0000 -0.3296
vn -0.5601 -0.0000 -0.8284
vn -0.0000 -1.0000 -0.0000
vn 0.5601 -0.0000 -0.8284
vn 0.9441 -0.0000 -0.3296
vn 0.9474 -0.0000 0.3199
vn 0.5729 -0.0000 0.8196
vn -0.5729 -0.0000 0.8196
vn -0.9474 -0.0000 0.3199
vn -0.9474 -0.0000 -0.3199
vn -0.5729 -0.0000 -0.8196
vn 0.5729 -0.0000 -0.8196
vn 0.9474 -0.0000 -0.3199
vt 0.207250 0.309520
vt 0.149903 0.330493
vt 0.149903 0.231693
vt 0.107774 0.547055
vt 0.107898 0.454839
vt 0.160434 0.529820
vt 0.193358 0.483616
vt 0.193465 0.426140
vt 0.160618 0.379999
vt 0.108022 0.362622
vt 0.055362 0.379858
vt 0.022437 0.426062
vt 0.022331 0.483537
vt 0.055178 0.529678
vt 0.651262 0.901607
vt 0.667724 0.901607
vt 0.667724 0.988108
vt 0.651262 0.988108
vt 0.651262 0.815035
vt 0.667724 0.815035
vt 0.651262 0.728421
vt 0.667724 0.728421
vt 0.651262 0.641849
vt 0.667724 0.641849
vt 0.651262 0.555348
vt 0.667724 0.555348
vt 0.651262 0.468847
vt 0.667724 0.468847
vt 0.651262 0.382275
vt 0.667724 0.382275
vt 0.651262 0.295661
vt 0.667724 0.295661
vt 0.651262 0.209089
vt 0.667724 0.209089
vt 0.651262 0.122588
vt 0.667724 0.122588
vt 0.686438 0.901607
vt 0.986620 0.901607
vt 0.986620 0.988108
vt 0.686438 0.988108
vt 0.686438 0.815035
vt 0.986620 0.815035
vt 0.686438 0.728421
vt 0.986620 0.728421
vt 0.686438 0.641849
vt 0.986620 0.641849
vt 0.686438 0.555348
vt 0.986620 0.555348
vt 0.686438 0.468847
vt 0.986620 0.468847
vt 0.686438 0.382275
vt 0.986620 0.382275
vt 0.686438 0.295661
vt 0.986620 0.295661
vt 0.686438 0.209089
vt 0.986620 0.209089
vt 0.686438 0.122588
vt 0.986620 0.122588
vt 0.283869 0.122588
vt 0.632547 0.122588
vt 0.632547 0.209089
vt 0.283869 0.209089
vt 0.632547 0.295661
vt 0.283869 0.295661
vt 0.632547 0.382275
vt 0.283869 0.382275
vt 0.632547 0.468847
vt 0.283869 0.468847
vt 0.632547 0.555348
vt 0.283869 0.555348
vt 0.632547 0.641849
vt 0.283869 0.641849
vt 0.632547 0.728421
vt 0.283869 0.728421
vt 0.632547 0.815035
vt 0.283869 0.815035
vt 0.632547 0.901607
vt 0.283869 0.901607
vt 0.632547 0.988108
vt 0.283869 0.988108
vt 0.107759 0.557723
vt 0.047272 0.538130
vt 0.009758 0.486719
vt 0.009758 0.422891
vt 0.047457 0.371377
vt 0.108037 0.351955
vt 0.168524 0.371548
vt 0.206038 0.422958
vt 0.206038 0.486786
vt 0.168339 0.538300
vt 0.316267 0.021935
vt 0.404724 0.021935
vt 0.404724 0.053157
vt 0.316267 0.053157
vt 0.496873 0.021935
vt 0.496873 0.053157
vt 0.591231 0.021935
vt 0.591231 0.053157
vt 0.683379 0.021935
vt 0.683379 0.053157
vt 0.771837 0.021935
vt 0.771837 0.053157
vt 0.860295 0.021935
vt 0.860295 0.053157
vt 0.952444 0.021935
vt 0.952444 0.053157
vt 0.041303 0.021935
vt 0.135660 0.021935
vt 0.135660 0.053157
vt 0.041303 0.053157
vt 0.132512 0.971377
vt 0.081353 0.953819
vt 0.133129 0.877964
vt 0.227809 0.021935
vt 0.227809 0.053157
vt 0.050231 0.706580
vt 0.050231 0.648179
vt 0.137923 0.671378
vt 0.666088 0.106552
vt 0.578457 0.106552
vt 0.578457 0.077815
vt 0.666088 0.077815
vt 0.488898 0.106552
vt 0.488898 0.077815
vt 0.398168 0.106552
vt 0.398168 0.077815
vt 0.308610 0.106552
vt 0.308610 0.077815
vt 0.220978 0.106552
vt 0.220978 0.077815
vt 0.133347 0.106552
vt 0.133347 0.077815
vt 0.043788 0.106552
vt 0.043788 0.077815
vt 0.934008 0.106552
vt 0.843279 0.106552
vt 0.843279 0.077815
vt 0.934008 0.077815
vt 0.753720 0.106552
vt 0.753720 0.077815
vt 0.057113 0.204565
vt 0.092556 0.153865
vt 0.083726 0.598640
vt 0.137923 0.576885
vt 0.192120 0.591223
vt 0.225615 0.636177
vt 0.225615 0.694577
vt 0.137923 0.765872
vt 0.083726 0.751534
vt 0.192120 0.744116
vt 0.242692 0.258821
vt 0.092555 0.313727
vt 0.242692 0.197759
vt 0.207250 0.149659
vt 0.149903 0.132893
vt 0.133746 0.784551
vt 0.184904 0.802108
vt 0.057113 0.265627
vt 0.217460 0.849062
vt 0.217054 0.908063
vt 0.183888 0.954531
vt 0.048798 0.906866
vt 0.049204 0.847865
vt 0.082369 0.801397
s 1
usemtl Trim_Collumne_01
f 96/1/1 94/2/1 114/3/1
f 43/4/2 11/5/1 23/6/3
f 23/6/3 11/5/1 24/7/4
f 24/7/4 11/5/1 25/8/5
f 25/8/5 11/5/1 26/9/6
f 26/9/6 11/5/1 27/10/7
f 27/10/7 11/5/1 28/11/8
f 28/11/8 11/5/1 29/12/9
f 29/12/9 11/5/1 30/13/10
f 30/13/10 11/5/1 31/14/11
f 31/14/11 11/5/1 43/4/2
f 40/15/12 20/16/12 53/17/12 62/18/12
f 39/19/13 19/20/13 20/16/13 40/15/13
f 38/21/14 18/22/14 19/20/14 39/19/14
f 37/23/15 17/24/15 18/22/15 38/21/15
f 36/25/16 16/26/16 17/24/16 37/23/16
f 35/27/17 15/28/17 16/26/17 36/25/17
f 34/29/18 14/30/18 15/28/18 35/27/18
f 33/31/19 13/32/19 14/30/19 34/29/19
f 32/33/20 12/34/20 13/32/20 33/31/20
f 62/35/21 53/36/21 12/34/21 32/33/21
f 52/37/22 42/38/22 22/39/22 21/40/22
f 54/41/23 44/42/23 42/38/23 52/37/23
f 55/43/14 45/44/14 44/42/14 54/41/14
f 56/45/24 46/46/24 45/44/24 55/43/24
f 57/47/25 47/48/25 46/46/25 56/45/25
f 58/49/26 48/50/26 47/48/26 57/47/26
f 59/51/27 49/52/27 48/50/27 58/49/27
f 60/53/19 50/54/19 49/52/19 59/51/19
f 61/55/28 51/56/28 50/54/28 60/53/28
f 21/57/29 22/58/29 51/56/29 61/55/29
f 1/59/29 41/60/29 63/61/29 2/62/29
f 2/62/28 63/61/28 64/63/28 3/64/28
f 3/64/19 64/63/19 65/65/19 4/66/19
f 4/66/27 65/65/27 66/67/27 5/68/27
f 5/68/26 66/67/26 67/69/26 6/70/26
f 6/70/25 67/69/25 68/71/25 7/72/25
f 7/72/24 68/71/24 69/73/24 8/74/24
f 8/74/14 69/73/14 70/75/14 9/76/14
f 9/76/23 70/75/23 71/77/23 10/78/23
f 10/78/22 71/77/22 41/79/22 1/80/22
f 31/14/11 43/4/2 22/81/30 42/82/31
f 30/13/10 31/14/11 42/82/31 44/83/32
f 29/12/9 30/13/10 44/83/32 45/84/33
f 28/11/8 29/12/9 45/84/33 46/85/34
f 27/10/7 28/11/8 46/85/34 47/86/35
f 26/9/6 27/10/7 47/86/35 48/87/36
f 25/8/5 26/9/6 48/87/36 49/88/37
f 24/7/4 25/8/5 49/88/37 50/89/38
f 23/6/3 24/7/4 50/89/38 51/90/39
f 43/4/2 23/6/3 51/90/39 22/81/30
f 53/17/40 20/16/41 52/37/42 21/40/40
f 20/16/41 19/20/43 54/41/44 52/37/42
f 19/20/43 18/22/45 55/43/46 54/41/44
f 18/22/45 17/24/47 56/45/48 55/43/46
f 17/24/47 16/26/49 57/47/49 56/45/48
f 16/26/49 15/28/50 58/49/51 57/47/49
f 15/28/50 14/30/52 59/51/53 58/49/51
f 14/30/52 13/32/54 60/53/55 59/51/53
f 13/32/54 12/34/56 61/55/57 60/53/55
f 12/34/56 53/36/40 21/57/40 61/55/57
f 62/35/58 32/33/59 63/61/60 41/60/58
f 32/33/59 33/31/61 64/63/62 63/61/60
f 33/31/61 34/29/63 65/65/64 64/63/62
f 34/29/63 35/27/65 66/67/66 65/65/64
f 35/27/65 36/25/67 67/69/67 66/67/66
f 36/25/67 37/23/68 68/71/69 67/69/67
f 37/23/68 38/21/70 69/73/71 68/71/69
f 38/21/70 39/19/72 70/75/73 69/73/71
f 39/19/72 40/15/74 71/77/75 70/75/73
f 40/15/74 62/18/58 41/79/58 71/77/75
f 72/91/76 74/92/76 75/93/76 73/94/76
f 74/92/77 76/95/77 77/96/77 75/93/77
f 76/95/19 78/97/19 79/98/19 77/96/19
f 78/97/78 80/99/78 81/100/78 79/98/78
f 80/99/79 82/101/79 83/102/79 81/100/79
f 82/101/80 84/103/80 85/104/80 83/102/80
f 84/103/81 86/105/81 87/106/81 85/104/81
f 86/107/14 88/108/14 89/109/14 87/110/14
f 73/111/82 75/112/82 112/113/82
f 88/108/83 90/114/83 91/115/83 89/109/83
f 90/114/84 72/91/84 73/94/84 91/115/84
f 90/116/1 88/117/1 113/118/1
f 92/119/85 94/120/85 95/121/85 93/122/85
f 94/120/86 96/123/86 97/124/86 95/121/86
f 96/123/19 98/125/19 99/126/19 97/124/19
f 98/125/87 100/127/87 101/128/87 99/126/87
f 100/127/88 102/129/88 103/130/88 101/128/88
f 102/129/89 104/131/89 105/132/89 103/130/89
f 104/131/90 106/133/90 107/134/90 105/132/90
f 106/135/14 108/136/14 109/137/14 107/138/14
f 108/136/91 110/139/91 111/140/91 109/137/91
f 110/139/92 92/119/92 93/122/92 111/140/92
f 108/141/1 106/142/1 114/3/1
f 88/117/1 86/143/1 113/118/1
f 86/143/1 84/144/1 113/118/1
f 84/144/1 82/145/1 113/118/1
f 82/145/1 80/146/1 113/118/1
f 80/146/1 78/147/1 113/118/1
f 74/148/1 72/149/1 113/118/1
f 78/147/1 76/150/1 113/118/1
f 76/150/1 74/148/1 113/118/1
f 72/149/1 90/116/1 113/118/1
f 98/151/1 96/1/1 114/3/1
f 94/2/1 92/152/1 114/3/1
f 100/153/1 98/151/1 114/3/1
f 102/154/1 100/153/1 114/3/1
f 104/155/1 102/154/1 114/3/1
f 106/142/1 104/155/1 114/3/1
f 83/156/82 85/157/82 112/113/82
f 92/152/1 110/158/1 114/3/1
f 110/158/1 108/141/1 114/3/1
f 85/157/82 87/159/82 112/113/82
f 87/159/82 89/160/82 112/113/82
f 89/160/82 91/161/82 112/113/82
f 91/161/82 73/111/82 112/113/82
f 75/112/82 77/162/82 112/113/82
f 77/162/82 79/163/82 112/113/82
f 81/164/82 83/156/82 112/113/82
f 79/163/82 81/164/82 112/113/82
