# Blender 4.1.1
# www.blender.org
mtllib cross.mtl
o Cube
v 1.000000 0.050556 0.305840
v 1.000000 -0.050556 0.305840
v 1.000000 0.050556 0.894161
v 1.000000 -0.050556 0.894161
v -1.000000 0.050556 0.305840
v -1.000000 -0.050556 0.305840
v -1.000000 0.050556 0.894161
v -1.000000 -0.050556 0.894161
vn -0.0000 1.0000 -0.0000
vn -0.0000 -0.0000 1.0000
vn -1.0000 -0.0000 -0.0000
vn -0.0000 -1.0000 -0.0000
vn 1.0000 -0.0000 -0.0000
vn -0.0000 -0.0000 -1.0000
vt 0.625000 0.500000
vt 0.875000 0.500000
vt 0.875000 0.750000
vt 0.625000 0.750000
vt 0.375000 0.750000
vt 0.625000 1.000000
vt 0.375000 1.000000
vt 0.375000 0.000000
vt 0.625000 0.000000
vt 0.625000 0.250000
vt 0.375000 0.250000
vt 0.125000 0.500000
vt 0.375000 0.500000
vt 0.125000 0.750000
s 0
usemtl Material
f 1/1/1 5/2/1 7/3/1 3/4/1
f 4/5/2 3/4/2 7/6/2 8/7/2
f 8/8/3 7/9/3 5/10/3 6/11/3
f 6/12/4 2/13/4 4/5/4 8/14/4
f 2/13/5 1/1/5 3/4/5 4/5/5
f 6/11/6 5/10/6 1/1/6 2/13/6
o Cube.001
v 1.000000 0.050556 -0.894161
v 1.000000 -0.050556 -0.894161
v 1.000000 0.050556 -0.305840
v 1.000000 -0.050556 -0.305840
v -1.000000 0.050556 -0.894161
v -1.000000 -0.050556 -0.894161
v -1.000000 0.050556 -0.305840
v -1.000000 -0.050556 -0.305840
vn -0.0000 1.0000 -0.0000
vn -0.0000 -0.0000 1.0000
vn -1.0000 -0.0000 -0.0000
vn -0.0000 -1.0000 -0.0000
vn 1.0000 -0.0000 -0.0000
vn -0.0000 -0.0000 -1.0000
vt 0.625000 0.500000
vt 0.875000 0.500000
vt 0.875000 0.750000
vt 0.625000 0.750000
vt 0.375000 0.750000
vt 0.625000 1.000000
vt 0.375000 1.000000
vt 0.375000 0.000000
vt 0.625000 0.000000
vt 0.625000 0.250000
vt 0.375000 0.250000
vt 0.125000 0.500000
vt 0.375000 0.500000
vt 0.125000 0.750000
s 0
usemtl Material.002
f 9/15/7 13/16/7 15/17/7 11/18/7
f 12/19/8 11/18/8 15/20/8 16/21/8
f 16/22/9 15/23/9 13/24/9 14/25/9
f 14/26/10 10/27/10 12/19/10 16/28/10
f 10/27/11 9/15/11 11/18/11 12/19/11
f 14/25/12 13/24/12 9/15/12 10/27/12
o Cube.002
v 1.000000 -0.892782 -0.053280
v 1.000000 -0.893723 0.047828
v 1.000000 -0.304487 -0.047808
v 1.000000 -0.305427 0.053300
v -1.000000 -0.892782 -0.053280
v -1.000000 -0.893723 0.047828
v -1.000000 -0.304487 -0.047808
v -1.000000 -0.305427 0.053300
vn -0.0000 0.0093 -1.0000
vn -0.0000 1.0000 0.0093
vn -1.0000 -0.0000 -0.0000
vn -0.0000 -0.0093 1.0000
vn 1.0000 -0.0000 -0.0000
vn -0.0000 -1.0000 -0.0093
vt 0.625000 0.500000
vt 0.875000 0.500000
vt 0.875000 0.750000
vt 0.625000 0.750000
vt 0.375000 0.750000
vt 0.625000 1.000000
vt 0.375000 1.000000
vt 0.375000 0.000000
vt 0.625000 0.000000
vt 0.625000 0.250000
vt 0.375000 0.250000
vt 0.125000 0.500000
vt 0.375000 0.500000
vt 0.125000 0.750000
s 0
usemtl Material.003
f 17/29/13 21/30/13 23/31/13 19/32/13
f 20/33/14 19/32/14 23/34/14 24/35/14
f 24/36/15 23/37/15 21/38/15 22/39/15
f 22/40/16 18/41/16 20/33/16 24/42/16
f 18/41/17 17/29/17 19/32/17 20/33/17
f 22/39/18 21/38/18 17/29/18 18/41/18
o Cube.003
v 1.000000 0.322917 -0.057870
v 1.000000 0.321977 0.043237
v 1.000000 0.911213 -0.052398
v 1.000000 0.910272 0.048709
v -1.000000 0.322917 -0.057870
v -1.000000 0.321977 0.043237
v -1.000000 0.911213 -0.052398
v -1.000000 0.910272 0.048709
vn -0.0000 0.0093 -1.0000
vn -0.0000 1.0000 0.0093
vn -1.0000 -0.0000 -0.0000
vn -0.0000 -0.0093 1.0000
vn 1.0000 -0.0000 -0.0000
vn -0.0000 -1.0000 -0.0093
vt 0.625000 0.500000
vt 0.875000 0.500000
vt 0.875000 0.750000
vt 0.625000 0.750000
vt 0.375000 0.750000
vt 0.625000 1.000000
vt 0.375000 1.000000
vt 0.375000 0.000000
vt 0.625000 0.000000
vt 0.625000 0.250000
vt 0.375000 0.250000
vt 0.125000 0.500000
vt 0.375000 0.500000
vt 0.125000 0.750000
s 0
usemtl Material.004
f 25/43/19 29/44/19 31/45/19 27/46/19
f 28/47/20 27/46/20 31/48/20 32/49/20
f 32/50/21 31/51/21 29/52/21 30/53/21
f 30/54/22 26/55/22 28/47/22 32/56/22
f 26/55/23 25/43/23 27/46/23 28/47/23
f 30/53/24 29/52/24 25/43/24 26/55/24
