# Blender 4.1.1
# www.blender.org
mtllib Sketchfab_2023_03_29_13_53_59.mtl
o Deco_01.001
v 17.588455 1.853874 -8.386630
v 16.935463 1.870834 -8.386630
v 18.241449 1.870835 -8.386630
v 17.588455 3.297981 -8.386630
v 16.935463 3.301401 -8.386630
v 18.241447 3.301401 -8.386630
v 16.469948 3.660203 -8.042995
v 16.468275 3.660203 -8.386483
v 18.706963 3.660203 -8.042995
v 18.706963 3.662739 -8.386482
v 16.468277 0.269300 -8.043142
v 16.468277 0.269300 -8.386482
v 18.706964 0.268986 -8.042995
v 18.708637 0.269301 -8.386482
v 17.588455 3.660203 -8.042995
v 17.588455 3.662738 -8.386483
v 17.588455 0.146119 -8.043142
v 17.588455 0.146119 -8.386482
v 16.934782 3.660203 -8.042995
v 16.935463 0.179092 -8.386482
v 16.935463 3.662738 -8.386483
v 16.935293 0.181658 -8.042995
v 18.241447 3.662738 -8.386482
v 18.241449 0.179093 -8.043142
v 18.242128 3.660203 -8.042995
v 18.241449 0.179093 -8.386482
v 18.706963 1.916059 -8.042995
v 18.708635 1.915932 -8.386482
v 16.469948 1.916058 -8.042995
v 16.468275 1.915931 -8.386482
v 17.385414 2.009648 -8.128197
v 16.641212 2.024354 -8.128050
v 18.330984 1.970964 -8.128050
v 18.706963 3.310107 -8.042995
v 16.468275 3.310494 -8.386483
v 17.588455 3.194381 -8.128197
v 16.844744 3.199196 -8.128050
v 18.330984 3.199934 -8.128050
v 18.706963 3.310463 -8.386630
v 16.469948 3.310106 -8.042995
v 17.385414 1.975646 -8.042995
v 16.614584 1.990929 -8.042995
v 18.355898 1.942627 -8.043142
v 16.817623 3.231459 -8.042995
v 18.359287 3.231460 -8.042995
v 17.588455 3.228378 -8.042995
v 16.887774 1.629571 -8.113880
v 17.026464 1.627269 -8.113887
v 16.885664 1.216390 -7.979002
v 16.886219 1.214932 -8.115227
v 16.887213 1.625453 -7.977575
v 17.025349 1.625936 -7.977573
v 17.025471 1.215420 -8.115224
v 17.024359 1.216876 -7.978950
v 17.164940 1.359185 -8.114554
v 16.747187 1.359184 -8.114554
v 17.164940 1.483144 -8.114554
v 16.748861 1.485678 -8.114554
v 17.163269 1.359185 -7.978238
v 16.747187 1.359184 -7.978385
v 17.163269 1.483144 -7.978238
v 16.748861 1.483143 -7.978238
v 18.255505 1.293344 -8.133344
v 18.255505 1.293344 -7.946768
v 18.218071 1.202973 -8.133344
v 18.218071 1.202973 -7.946768
v 18.127701 1.165540 -8.133344
v 18.127701 1.165540 -7.946768
v 18.037329 1.202973 -8.133344
v 18.037329 1.202973 -7.946768
v 17.999895 1.293344 -8.133344
v 17.999895 1.293344 -7.946768
v 18.037327 1.383715 -8.133344
v 18.037327 1.383715 -7.946768
v 18.127701 1.421148 -8.133344
v 18.127701 1.421148 -7.946768
v 18.218071 1.383715 -8.133344
v 18.218071 1.383715 -7.946768
v 18.127701 1.293344 -7.946768
v 18.554279 1.470519 -8.133344
v 18.554279 1.470519 -7.946768
v 18.516848 1.380148 -8.133344
v 18.516848 1.380148 -7.946768
v 18.426476 1.342715 -8.133344
v 18.426476 1.342715 -7.946768
v 18.336103 1.380148 -8.133344
v 18.336103 1.380148 -7.946768
v 18.298672 1.470519 -8.133344
v 18.298672 1.470519 -7.946768
v 18.336103 1.560890 -8.133344
v 18.336103 1.560890 -7.946768
v 18.426476 1.598324 -8.133344
v 18.426476 1.598324 -7.946768
v 18.516846 1.560890 -8.133344
v 18.516846 1.560890 -7.946768
v 18.426476 1.470519 -7.946768
v 16.794712 0.454862 -8.040579
v 17.786728 0.257969 -8.040314
v 17.008959 1.382431 -8.020308
v 18.000975 1.185538 -8.020042
v 17.933224 1.436128 -8.410964
v 16.500422 2.013362 -8.410964
v 18.654078 3.191810 -8.410964
v 17.221275 3.769045 -8.410965
v 18.842461 0.879814 -8.395154
v 17.499224 0.603392 -8.395420
v 18.552357 2.182042 -8.415425
v 17.209122 1.905619 -8.415691
v 17.384462 0.327066 -8.391208
v 16.600435 0.330685 -8.391473
v 17.386616 1.178487 -8.411478
v 16.602589 1.182106 -8.411744
v 16.916563 2.313540 -8.087898
v 18.297934 2.311265 -8.085395
v 16.912964 2.809342 -8.104175
v 18.292307 2.807065 -8.101686
v 17.025688 1.359185 -8.114554
v 16.886438 1.359185 -8.114554
v 16.887554 1.484833 -8.114554
v 17.026247 1.483989 -8.114554
v 16.885881 1.359185 -7.978336
v 17.024574 1.359185 -7.978287
v 16.886997 1.483144 -7.978238
v 17.025131 1.483144 -7.978238
v 17.067472 3.472157 -8.042995
v 17.588455 3.472157 -8.042995
v 18.109438 3.472158 -8.042995
v 17.067472 3.418606 -8.042995
v 18.109438 3.418606 -8.042995
v 17.588455 3.418221 -8.042995
v 17.067472 3.472157 -8.079385
v 17.588455 3.472157 -8.079385
v 18.109438 3.472158 -8.079385
v 17.067472 3.418606 -8.079385
v 18.109438 3.418606 -8.079385
v 17.588455 3.418221 -8.079385
vn 0.0001 0.0002 -1.0000
vn -0.0000 0.0002 -1.0000
vn -0.0000 0.0004 -1.0000
vn 0.0002 -0.0000 -1.0000
vn 0.0001 -0.0001 -1.0000
vn 0.0001 -0.0000 -1.0000
vn -0.0001 -0.0001 -1.0000
vn -0.0002 -0.0000 -1.0000
vn -0.0001 -0.0000 -1.0000
vn -0.0001 0.0002 -1.0000
vn -0.0002 0.0001 -1.0000
vn -0.0002 0.0002 -1.0000
vn -0.0001 0.0003 -1.0000
vn -0.1870 -0.9824 0.0036
vn 1.0000 -0.0000 -0.0000
vn 1.0000 0.0003 0.0012
vn -0.0524 -0.9986 0.0037
vn 0.0001 -0.0000 1.0000
vn -0.0000 -0.0000 1.0000
vn -0.0002 -0.0000 1.0000
vn -0.0001 -0.0000 1.0000
vn -1.0000 -0.0000 0.0049
vn -0.0000 -0.0001 -1.0000
vn -0.0000 -0.0000 -1.0000
vn 0.0504 -0.9987 -0.0000
vn -0.0003 -0.0000 1.0000
vn -0.0004 -0.0000 1.0000
vn 1.0000 0.0003 0.0037
vn 1.0000 -0.0000 0.0049
vn -1.0000 0.0005 0.0024
vn -1.0000 0.0003 0.0037
vn -0.0014 1.0000 0.0055
vn -0.0000 1.0000 0.0074
vn 0.1896 -0.9819 -0.0000
vn -0.0002 -0.0001 1.0000
vn -0.0027 1.0000 0.0037
vn 0.0352 0.9400 0.3393
vn 0.0002 -0.0000 1.0000
vn 0.9418 -0.1585 0.2965
vn 0.0184 0.9286 0.3706
vn -0.9543 0.0013 0.2988
vn 0.0053 -0.9336 0.3584
vn 0.0002 -0.9329 0.3602
vn -0.0048 -0.9322 0.3620
vn -0.0000 0.0047 -1.0000
vn 0.0035 -0.9999 0.0107
vn 0.9999 -0.0000 0.0123
vn -1.0000 0.0015 -0.0041
vn -0.0001 -0.0021 1.0000
vn -0.0001 -0.0018 1.0000
vn -0.0000 -0.0047 1.0000
vn -0.0002 -0.0010 1.0000
vn -0.0002 -0.0021 1.0000
vn 0.0031 0.9999 0.0155
vn -0.9999 0.0134 0.0001
vn -0.0000 -1.0000 -0.0000
vn 0.9239 -0.3827 -0.0000
vn 0.3827 -0.9239 -0.0000
vn -0.3827 -0.9239 -0.0000
vn -0.9239 -0.3827 -0.0000
vn -0.9239 0.3827 -0.0000
vn -0.3827 0.9239 -0.0000
vn 0.3827 0.9239 -0.0000
vn 0.9239 0.3827 -0.0000
vn -0.0044 -0.0208 0.9998
vn 0.0033 -0.0148 -0.9999
vn 0.0002 -0.0238 -0.9997
vn -0.0018 0.0328 0.9995
vn 0.0066 0.9998 0.0200
vn -0.0002 -0.0018 1.0000
vn -0.0002 -0.0002 1.0000
vn 1.0000 -0.0016 0.0082
vn 0.0031 1.0000 0.0031
vn -0.0004 -0.0047 1.0000
vn -0.0000 1.0000 -0.0000
vn -0.0007 1.0000 -0.0000
vn -1.0000 -0.0000 -0.0000
vn 0.0007 1.0000 -0.0000
vt 0.700723 0.394510
vt 0.672508 0.393434
vt 0.672508 0.436368
vt 0.700723 0.436368
vt 0.700824 0.033156
vt 0.672508 0.022437
vt 0.672508 0.223452
vt 0.700824 0.228811
vt 0.593352 0.022437
vt 0.565036 0.033156
vt 0.565036 0.228810
vt 0.593352 0.223452
vt 0.593352 0.393434
vt 0.565036 0.394514
vt 0.565036 0.436067
vt 0.593352 0.436368
vt 0.593342 0.022742
vt 0.700723 0.436067
vt 0.700723 0.394468
vt 0.632930 0.018519
vt 0.632930 0.229867
vt 0.586210 0.231683
vt 0.679444 0.231982
vt 0.632930 0.393027
vt 0.632930 0.436368
vt 0.565137 0.394468
vt 0.565137 0.436067
vt 0.632930 0.221437
vt 0.700723 0.228826
vt 0.700723 0.033118
vt 0.565137 0.228826
vt 0.593311 0.436067
vt 0.632930 0.436067
vt 0.679650 0.385123
vt 0.672549 0.436067
vt 0.226814 0.241404
vt 0.225996 0.132044
vt 0.044024 0.132044
vt 0.045812 0.241404
vt 0.586210 0.385123
vt 0.190689 0.450380
vt 0.190689 0.447457
vt 0.190689 0.018745
vt 0.190689 0.068229
vt 0.190689 0.451239
vt 0.190689 0.063505
vt 0.190689 0.062724
vt 0.190689 0.477136
vt 0.190689 0.012985
vt 0.190689 0.018746
vt 0.190689 0.480059
vt 0.190689 0.063092
vt 0.190689 0.478658
vt 0.190689 0.476277
vt 0.190689 0.448858
vt 0.347894 0.877865
vt 0.297014 0.877865
vt 0.297095 0.512938
vt 0.347974 0.512938
vt 0.347201 0.512938
vt 0.296321 0.512938
vt 0.296524 0.512938
vt 0.347609 0.512938
vt 0.344693 0.512938
vt 0.299218 0.512938
vt 0.296809 0.877865
vt 0.296889 0.512938
vt 0.347485 0.877865
vt 0.347565 0.512938
vt 0.344693 0.877865
vt 0.299218 0.877865
vt 0.345313 0.877865
vt 0.345622 0.512938
vt 0.527297 0.455140
vt 0.528443 0.180740
vt 0.599305 0.181207
vt 0.598159 0.455607
vt 0.527294 0.455143
vt 0.528441 0.180743
vt 0.599303 0.181210
vt 0.598157 0.455610
vt 0.527294 0.455139
vt 0.528440 0.180739
vt 0.599303 0.181207
vt 0.598157 0.455607
vt 0.527296 0.455141
vt 0.528442 0.180741
vt 0.599305 0.181209
vt 0.598159 0.455608
vt 0.598159 0.455607
vt 0.564597 0.007320
vt 0.527295 0.455143
vt 0.528441 0.180742
vt 0.599303 0.181210
vt 0.598157 0.455610
vt 0.564599 0.007317
vt 0.564597 0.007320
vt 0.564599 0.007317
vt 0.564597 0.007317
vt 0.564599 0.007317
vt 0.564599 0.007318
vt 0.527294 0.990127
vt 0.528441 0.633901
vt 0.599303 0.634508
vt 0.598157 0.990734
vt 0.527294 0.990125
vt 0.528440 0.633898
vt 0.599303 0.634505
vt 0.598157 0.990732
vt 0.527294 0.990125
vt 0.528440 0.633898
vt 0.599303 0.634505
vt 0.598157 0.990732
vt 0.599303 0.634506
vt 0.598157 0.990732
vt 0.527295 0.990127
vt 0.528441 0.633901
vt 0.599303 0.634507
vt 0.598157 0.990734
vt 0.599303 0.634508
vt 0.564597 0.408761
vt 0.527297 0.990123
vt 0.528443 0.633896
vt 0.599305 0.634504
vt 0.598159 0.990730
vt 0.564597 0.408763
vt 0.564599 0.408759
vt 0.564597 0.408763
vt 0.564597 0.408761
vt 0.564597 0.408763
vt 0.564597 0.408761
vt 0.564597 0.408761
vt 0.265301 0.252416
vt 0.498362 0.252416
vt 0.498362 0.485476
vt 0.265301 0.485476
vt 0.502465 0.257667
vt 0.738313 0.257667
vt 0.738313 0.493515
vt 0.502465 0.493515
vt 0.372245 0.753093
vt 0.487482 0.753093
vt 0.487482 0.868330
vt 0.372245 0.868330
vt 0.759143 0.255533
vt 0.999197 0.255533
vt 0.999197 0.500526
vt 0.759143 0.500526
vt 0.009346 0.009818
vt 0.494968 0.006540
vt 0.499215 0.248952
vt 0.013593 0.252231
vt 0.296605 0.877865
vt 0.347689 0.877865
vt 0.345003 0.877865
vt 0.347280 0.877865
vt 0.296400 0.877865
vt 0.632930 0.031016
vt 0.593311 0.031016
vt 0.586210 0.021277
vt 0.705426 0.391554
vt 0.627049 0.391554
vt 0.626067 0.391554
vt 0.700348 0.391554
vt 0.716928 0.026006
vt 0.677309 0.026006
vt 0.677309 0.016468
vt 0.724029 0.016536
vt 0.637690 0.026006
vt 0.630589 0.016536
vt 0.705426 0.022506
vt 0.627049 0.022506
vt 0.679650 0.021277
vt 0.672549 0.031016
vt 0.626067 0.022506
vt 0.700348 0.022506
s 1
usemtl Trim_Retro_Ramp_02
f 39/1/1 6/2/2 23/3/3 10/4/3
f 14/5/4 26/6/5 3/7/6 28/8/4
f 20/9/7 12/10/8 30/11/8 2/12/9
f 5/13/10 35/14/11 8/15/12 21/16/13
f 22/17/14 11/10/14 12/10/14 20/9/14
f 9/18/15 34/19/16 39/1/16 10/4/15
f 17/20/17 22/17/17 20/9/17 18/20/17
f 41/21/18 42/22/19 22/17/19 17/20/18
f 43/23/20 41/21/18 17/20/18 24/6/21
f 4/24/2 5/13/10 21/16/13 16/25/3
f 40/26/22 7/27/22 8/15/22 35/14/22
f 6/2/2 4/24/2 16/25/3 23/3/3
f 26/6/5 18/20/23 1/28/24 3/7/6
f 24/6/25 17/20/25 18/20/25 26/6/25
f 27/29/26 43/23/20 24/6/21 13/30/27
f 27/29/28 13/30/29 14/5/29 28/8/28
f 11/10/30 29/31/31 30/11/31 12/10/30
f 19/32/32 15/33/33 16/25/33 21/16/32
f 15/33/19 19/32/19 125/32/19 126/33/19
f 34/19/16 27/29/28 28/8/28 39/1/16
f 34/19/21 45/34/21 43/23/20 27/29/26
f 18/20/23 20/9/7 2/12/9 1/28/24
f 13/30/34 24/6/34 26/6/34 14/5/34
f 2/12/9 30/11/8 35/14/11 5/13/10
f 42/22/19 29/31/20 11/10/35 22/17/19
f 28/8/4 3/7/6 6/2/2 39/1/1
f 9/18/19 25/35/19 45/34/21 34/19/21
f 7/27/36 19/32/32 21/16/32 8/15/36
f 25/35/19 15/33/19 126/33/19 127/35/19
f 15/33/33 25/35/33 23/3/33 16/25/33
f 25/35/33 9/18/33 10/4/33 23/3/33
f 29/31/31 40/26/22 35/14/22 30/11/31
f 1/28/24 2/12/9 5/13/10 4/24/2
f 3/7/6 1/28/24 4/24/2 6/2/2
f 44/40/19 40/26/19 29/31/20 42/22/19
f 19/32/19 7/27/19 40/26/19 44/40/19
f 126/158/56 125/159/56 131/159/56 132/158/56
f 125/159/15 128/160/15 134/160/15 131/159/15
f 46/161/19 45/162/21 129/162/19 130/161/19
f 19/32/19 44/40/19 128/40/19 125/32/19
f 44/163/19 46/164/19 130/164/19 128/163/19
f 45/34/21 25/35/19 127/35/19 129/34/19
f 130/171/75 129/172/76 135/172/76 136/171/75
f 129/173/77 127/174/77 133/174/77 135/173/77
f 127/174/56 126/158/56 132/158/56 133/174/56
f 128/175/78 130/176/75 136/176/75 134/175/78
usemtl Trim_Retro_Ramp_01
f 31/41/37 41/42/37 43/43/37 33/44/37
f 37/46/39 44/49/39 42/50/39 32/47/39
f 32/47/40 42/50/40 41/51/40 31/48/40
f 33/44/41 43/43/41 45/50/41 38/52/41
f 38/52/42 45/50/42 46/53/43 36/54/43
f 36/45/43 46/55/43 44/49/44 37/46/44
f 54/60/46 49/61/46 50/62/46 53/63/46
f 57/64/47 61/64/47 59/65/47 55/65/47
f 119/57/48 123/66/48 51/67/48 47/58/48
f 123/66/49 124/68/50 52/69/51 51/67/51
f 123/70/49 62/64/52 60/65/52 121/71/53
f 119/72/54 58/73/54 62/64/54 123/70/54
f 62/64/55 58/73/55 56/65/55 60/65/55
f 59/65/56 122/71/56 117/71/56 55/65/56
f 63/74/57 64/75/57 66/76/57 65/77/57
f 65/78/58 66/79/58 68/80/58 67/81/58
f 67/82/59 68/83/59 70/84/59 69/85/59
f 69/86/60 70/87/60 72/88/60 71/89/60
f 71/74/61 72/75/61 74/76/61 73/90/61
f 73/74/62 74/75/62 76/76/62 75/90/62
f 68/80/19 66/79/19 79/91/19
f 75/82/63 76/83/63 78/84/63 77/85/63
f 77/92/64 78/93/64 64/94/64 63/95/64
f 74/76/19 72/75/19 79/96/19
f 64/94/19 78/93/19 79/97/19
f 66/76/19 64/75/19 79/98/19
f 70/84/19 68/83/19 79/99/19
f 76/76/19 74/75/19 79/100/19
f 72/88/19 70/87/19 79/101/19
f 78/84/19 76/83/19 79/99/19
f 80/102/57 81/103/57 83/104/57 82/105/57
f 82/106/58 83/107/58 85/108/58 84/109/58
f 84/110/59 85/111/59 87/112/59 86/113/59
f 86/106/60 87/107/60 89/114/60 88/115/60
f 88/116/61 89/117/61 91/118/61 90/119/61
f 90/116/62 91/117/62 93/120/62 92/119/62
f 85/108/19 83/107/19 96/121/19
f 92/110/63 93/111/63 95/108/63 94/109/63
f 94/122/64 95/123/64 81/124/64 80/125/64
f 91/118/19 89/117/19 96/126/19
f 81/124/19 95/123/19 96/127/19
f 83/104/19 81/103/19 96/128/19
f 87/112/19 85/111/19 96/129/19
f 93/120/19 91/117/19 96/130/19
f 89/114/19 87/107/19 96/131/19
f 95/108/19 93/111/19 96/132/19
f 48/59/69 47/58/69 51/67/69 52/69/69
f 124/70/50 123/70/49 121/71/53 122/71/70
f 61/64/71 124/70/50 122/71/70 59/65/71
f 121/71/56 60/65/56 56/65/56 118/71/56
f 124/68/72 120/56/72 48/59/72 52/69/72
f 57/64/73 120/155/73 124/70/73 61/64/73
f 117/154/72 122/156/72 54/60/72 53/63/72
f 121/157/48 118/153/48 50/62/48 49/61/48
f 122/156/70 121/157/53 49/61/74 54/60/74
f 133/165/19 132/166/19 136/167/19 135/168/19
f 132/166/19 131/169/19 134/170/19 136/167/19
usemtl Atlas_Computer_01_Blend
f 97/133/65 98/134/65 100/135/65 99/136/65
f 101/137/24 102/138/24 104/139/24 103/140/24
f 105/141/66 106/142/66 108/143/66 107/144/66
f 109/145/67 110/146/67 112/147/67 111/148/67
f 113/149/68 114/150/68 116/151/68 115/152/68
usemtl Trim_GlitchScreens_01_Trans
f 38/36/20 36/37/19 31/38/19 33/39/20
f 36/45/19 37/46/38 32/47/38 31/48/19
f 120/56/45 119/57/45 47/58/45 48/59/45
f 118/153/45 117/154/45 53/63/45 50/62/45
